<svg width="380" height="438" fill="none" xmlns="http://www.w3.org/2000/svg" xmlns:xlink="http://www.w3.org/1999/xlink"><defs><path stroke="#7B7C81" stroke-opacity=".61" stroke-width=".5" d="M0-.25h438.178" id="reuse-0"/><path stroke="#7B7C81" stroke-opacity=".61" stroke-width=".5" d="M0-.25h367.333" id="reuse-1"/></defs><mask id="a" style="mask-type:alpha" maskUnits="userSpaceOnUse" x="0" y="0" width="380" height="438"><path fill="#D9D9D9" d="M.363.031h379.473v436.983H.363z"/></mask><g mask="url(#a)"><use transform="matrix(.86603 .5 -.99547 -.0951 .363 181.322)" stroke-opacity=".61" stroke-width=".5" xlink:href="#reuse-0"/><use transform="matrix(.86603 .5 -.99547 -.0951 .363 195.217)" stroke-opacity=".61" stroke-width=".5" xlink:href="#reuse-0"/><use transform="matrix(.86603 .5 -.99547 -.0951 .363 208.872)" stroke-opacity=".61" stroke-width=".5" xlink:href="#reuse-0"/><use transform="matrix(.86603 .5 -.99547 -.0951 .363 185.802)" stroke-opacity=".61" stroke-width=".5" xlink:href="#reuse-0"/><use transform="matrix(.86603 .5 -.99547 -.0951 .363 199.697)" stroke-opacity=".61" stroke-width=".5" xlink:href="#reuse-0"/><use transform="matrix(.86603 .5 -.99547 -.0951 .363 213.352)" stroke-opacity=".61" stroke-width=".5" xlink:href="#reuse-0"/><use transform="matrix(.86603 .5 -.99547 -.0951 .363 176.719)" stroke-opacity=".61" stroke-width=".5" xlink:href="#reuse-0"/><use transform="matrix(.86603 .5 -.99547 -.0951 .363 190.375)" stroke-opacity=".61" stroke-width=".5" xlink:href="#reuse-0"/><use transform="matrix(.86603 .5 -.99547 -.0951 .363 204.27)" stroke-opacity=".61" stroke-width=".5" xlink:href="#reuse-0"/><use transform="matrix(.86603 .5 -.99547 -.0951 .363 217.925)" stroke-opacity=".61" stroke-width=".5" xlink:href="#reuse-0"/><use transform="matrix(.86603 .5 -.99547 -.0951 .363 167.667)" stroke-opacity=".61" stroke-width=".5" xlink:href="#reuse-0"/><use transform="matrix(.86603 .5 -.99547 -.0951 .363 172.146)" stroke-opacity=".61" stroke-width=".5" xlink:href="#reuse-0"/><path stroke="#7B7C81" stroke-opacity=".61" stroke-width=".5" d="m-.037 1.784 52.043 30.051M.14 15.037l40.651 23.47M-1.125 27.832l31.097 17.954M-.888 41.544 29.8 59.262M-.037 70.188l106.796 61.659M-.037 84.083l106.796 61.659M-.037 97.739l106.796 61.658M.001 6.196l48.51 28.008M.039 19.697l36.224 20.914M-2.805 30.923l32.936 19.015M-1.125 46.689l31.162 17.992M-.037 74.668l106.796 61.659M-.037 88.563l106.796 61.659M-.037 102.218l106.796 61.659M-.109 10.959l43.811 25.294M.09 24.177l32.778 18.925M-.883 36.636l30.677 17.712M-.498 51.452l30.791 17.776M-.037 65.585l106.796 61.659M-.037 79.241 106.759 140.9M-.037 93.136l106.796 61.659M-.037 106.791l106.796 61.659M-.037 56.533l106.796 61.659M-.037 61.013l106.796 61.658"/><path d="M37.847 83.092h.52l.03-.209-.613-.353.063.562Z" fill="#525356"/><use transform="matrix(.86603 .5 -.99998 -.00603 -16.913 116.09)" stroke-opacity=".61" stroke-width=".5" xlink:href="#reuse-1"/><use transform="matrix(.86603 .5 -.99998 -.00603 -16.913 129.985)" stroke-opacity=".61" stroke-width=".5" xlink:href="#reuse-1"/><use transform="matrix(.86603 .5 -.99998 -.00603 -16.913 143.641)" stroke-opacity=".61" stroke-width=".5" xlink:href="#reuse-1"/><use transform="matrix(.86603 .5 -.99998 -.00603 -16.913 120.57)" stroke-opacity=".61" stroke-width=".5" xlink:href="#reuse-1"/><use transform="matrix(.86603 .5 -.99998 -.00603 -16.913 134.465)" stroke-opacity=".61" stroke-width=".5" xlink:href="#reuse-1"/><use transform="matrix(.86603 .5 -.99998 -.00603 -16.913 148.12)" stroke-opacity=".61" stroke-width=".5" xlink:href="#reuse-1"/><use transform="matrix(.86603 .5 -.99998 -.00603 -16.913 111.487)" stroke-opacity=".61" stroke-width=".5" xlink:href="#reuse-1"/><use transform="matrix(.86603 .5 -.99998 -.00603 -16.913 125.143)" stroke-opacity=".61" stroke-width=".5" xlink:href="#reuse-1"/><use transform="matrix(.86603 .5 -.99998 -.00603 -16.913 139.038)" stroke-opacity=".61" stroke-width=".5" xlink:href="#reuse-1"/><use transform="matrix(.86603 .5 -.99998 -.00603 -16.913 152.693)" stroke-opacity=".61" stroke-width=".5" xlink:href="#reuse-1"/><use transform="matrix(.86603 .5 -.99998 -.00603 -16.913 102.435)" stroke-opacity=".61" stroke-width=".5" xlink:href="#reuse-1"/><use transform="matrix(.86603 .5 -.99998 -.00603 -16.913 106.915)" stroke-opacity=".61" stroke-width=".5" xlink:href="#reuse-1"/></g></svg>