<?xml version="1.0" standalone="no"?>
<!DOCTYPE svg PUBLIC "-//W3C//DTD SVG 20010904//EN"
 "http://www.w3.org/TR/2001/REC-SVG-20010904/DTD/svg10.dtd">
<svg version="1.0" xmlns="http://www.w3.org/2000/svg"
 width="400.000000pt" height="400.000000pt" viewBox="0 0 400.000000 400.000000"
 preserveAspectRatio="xMidYMid meet">
<metadata>
Created by potrace 1.14, written by Peter Selinger 2001-2017
</metadata>
<g transform="translate(0.000000,400.000000) scale(0.100000,-0.100000)"
fill="#000000" stroke="none">
<path d="M3810 2888 c-71 -48 -75 -150 -7 -195 60 -41 141 -23 174 40 21 39
23 64 7 97 -35 71 -115 98 -174 58z"/>
<path d="M1757 2844 c-1 -1 -58 -5 -127 -9 -69 -4 -138 -8 -155 -10 -16 -3
-59 -7 -95 -11 -36 -3 -72 -7 -80 -9 -8 -2 -44 -6 -80 -10 -36 -4 -74 -9 -85
-12 -11 -2 -31 -6 -45 -8 -14 -2 -43 -6 -65 -10 -22 -3 -55 -10 -75 -15 -19
-5 -48 -11 -65 -14 -76 -13 -353 -87 -421 -113 -6 -2 -14 7 -18 20 -7 30 -43
44 -106 43 -77 -3 -86 -10 -117 -93 -16 -43 -37 -81 -48 -88 -11 -6 -54 -31
-95 -54 l-76 -42 1 -434 0 -435 35 -23 c72 -49 360 -185 360 -170 0 3 6 1 12
-4 12 -10 133 -52 161 -57 7 -1 39 -10 72 -20 72 -21 160 -43 205 -52 20 -4
84 -17 90 -19 5 -1 128 -23 172 -31 30 -5 82 -12 138 -20 25 -3 59 -8 75 -10
49 -7 217 -21 336 -27 42 -2 81 -7 88 -11 6 -4 11 -2 11 4 0 6 5 8 13 3 16
-10 386 -12 393 -2 2 5 16 4 30 -1 30 -12 37 -12 31 -2 -3 4 25 7 61 8 103 1
218 10 231 18 6 4 11 2 11 -4 0 -6 5 -8 11 -4 6 4 23 8 38 9 14 2 55 5 91 9
36 3 76 8 89 11 13 2 49 7 80 11 31 3 58 8 61 9 3 2 24 6 46 9 22 4 51 9 64
11 14 3 36 7 50 10 219 42 566 146 652 195 10 6 25 10 33 10 8 0 15 5 15 10 0
6 6 10 14 10 19 0 189 91 210 113 8 9 11 132 11 444 l0 433 -41 21 c-38 21
-40 25 -40 65 0 75 -17 84 -153 84 -64 0 -122 4 -130 9 -8 5 -16 20 -18 32 -8
53 -76 94 -127 76 -17 -6 -36 -17 -42 -25 -10 -13 -21 -12 -90 7 -43 12 -88
24 -99 26 -11 3 -31 7 -45 10 -14 4 -36 8 -50 11 -14 3 -32 7 -40 9 -8 2 -15
4 -15 5 0 1 -11 3 -25 5 -14 2 -77 13 -140 24 -153 27 -213 35 -325 46 -27 2
-72 7 -100 10 -129 13 -747 29 -758 19z"/>
</g>
</svg>
